<?xml version="1.0" encoding="UTF-8"?>
<svg xmlns="http://www.w3.org/2000/svg" width="301" height="60" viewBox="0 0 301 60" fill="none">
  <g clip-path="url(#clip0_12517_80856)">
    <path d="M128.381 16.5056C125.981 18.6781 125.108 23.6006 129.434 26.4782L146.693 38.3192L138.325 19.1472C136.571 14.623 131.774 13.6364 128.381 16.5056Z" fill="black"></path>
    <path d="M143.238 7.18414C140.433 7.2413 136.22 10.5821 138.095 15.6836L146.75 36.096L149.791 14.6261C150.495 9.29132 146.458 6.82866 143.238 7.18414Z" fill="black"></path>
    <path d="M151.142 13.8073H152.779C152.779 13.8073 153.652 13.8073 153.771 14.2196C153.127 14.7455 151.374 14.8114 151.607 17.6207L154.358 36.0931L162.954 15.6272C164.713 11.0575 161.022 7.24113 157.748 7.1245C157.595 7.11353 157.442 7.10461 157.283 7.10461C154.345 7.10453 150.977 9.24007 151.142 13.8073Z" fill="black"></path>
    <path d="M162.608 19.3211L154.478 38.2631L171.732 26.3596C175.709 23.5386 175.068 19.0284 172.841 16.799C171.908 15.7497 170.194 14.9392 168.379 14.9392C166.234 14.9387 163.939 16.0763 162.608 19.3211Z" fill="black"></path>
    <path d="M169.8 29.0548L153.597 40.3728H173.548C177.641 40.3728 180.271 36.1525 179.102 32.2796C178.319 29.8452 176.002 27.9343 173.312 27.9315C172.18 27.9319 170.98 28.2729 169.8 29.0548Z" fill="black"></path>
    <path d="M127.916 40.3729H147.573L131.366 29.0548C127.621 26.649 123.411 28.0567 121.891 32.049C120.603 36.6191 123.82 40.3729 127.916 40.3729Z" fill="black"></path>
    <path d="M120.534 48.5638C120.534 50.4913 122.11 53.9999 128.127 53.9999C133.674 53.9999 135.426 51.4545 135.426 50.2874H131.131C131.131 50.2874 130.927 51.8293 128.505 51.8293C126.081 51.8293 125.425 49.8059 125.425 48.6358C125.425 47.4702 126.081 45.5561 128.505 45.5561C130.927 45.5561 131.131 46.8986 131.131 46.8986H135.426C135.426 45.73 134.141 43.2205 128.127 43.2205C122.11 43.2205 120.534 46.9572 120.534 48.5638Z" fill="black"></path>
    <path d="M165.574 48.5638C165.574 50.4913 167.151 53.9999 173.166 53.9999C178.713 53.9999 180.466 51.4545 180.466 50.2874H176.174C176.174 50.2874 175.969 51.8293 173.546 51.8293C171.122 51.8293 170.465 49.8059 170.465 48.6358C170.465 47.4702 171.122 45.5561 173.546 45.5561C175.969 45.5561 176.174 46.8986 176.174 46.8986H180.466C180.466 45.73 179.182 43.2205 173.166 43.2205C167.151 43.2205 165.574 46.9572 165.574 48.5638Z" fill="black"></path>
    <path d="M147.163 43.4005V49.9257L142.165 43.4005H136.543V53.7359H140.397V47.1357L145.308 53.7359H151.018V43.4005H147.163Z" fill="black"></path>
    <path d="M159.515 51.2667V51.2804H156.303V49.3827H159.515V49.3888C160.201 49.3888 160.755 49.8103 160.755 50.3293C160.755 50.847 160.201 51.2667 159.515 51.2667ZM156.333 45.4107H159.427V45.4151C159.952 45.4151 160.377 45.76 160.377 46.1845C160.377 46.6107 159.952 46.9527 159.427 46.9527V46.9573H156.333V45.4107ZM162.669 48.2412C163.371 48.2412 164.838 47.4267 164.838 45.8486C164.838 43.6015 160.654 43.4005 160.012 43.4005H152.302V53.7359H160.012C163.72 53.7359 165.209 52.5645 165.209 50.6083C165.209 48.6522 162.669 48.2412 162.669 48.2412Z" fill="black"></path>
  </g>
  <defs>
    <clipPath id="clip0_12517_80856">
      <rect width="60.0586" height="48" fill="white" transform="translate(120.471 6)"></rect>
    </clipPath>
  </defs>
</svg>
