<?xml version="1.0" encoding="UTF-8"?>
<svg xmlns="http://www.w3.org/2000/svg" width="201" height="40" viewBox="0 0 201 40" fill="none">
  <g clip-path="url(#clip0_13139_141546)">
    <path fill-rule="evenodd" clip-rule="evenodd" d="M65.8848 8.34253H65.9773V8.24433L65.8848 8.34253Z" fill="black"></path>
    <path fill-rule="evenodd" clip-rule="evenodd" d="M65.9773 8.34253L65.979 10.5895H69.6783V32.2853H73.1725V10.5895H76.7697V8.33747L65.9773 8.34253Z" fill="black"></path>
    <path fill-rule="evenodd" clip-rule="evenodd" d="M74.5728 14.4037H77.7208V15.4312C77.7208 15.4312 79.4901 13.9925 81.2603 14.2497V17.4351H80.1676C80.1676 17.4351 77.8257 17.5388 77.8777 19.0802C77.9205 20.365 77.8777 32.2346 77.8777 32.2346H74.5728V14.4037Z" fill="black"></path>
    <path fill-rule="evenodd" clip-rule="evenodd" d="M90.3608 14.3518H93.7859L95.8089 25.8108L97.6774 14.4031H99.8562L96.5355 32.2854H93.8896L90.3608 14.3518Z" fill="black"></path>
    <path fill-rule="evenodd" clip-rule="evenodd" d="M105.831 24.9371V28.8935C105.831 28.8935 105.78 31.0514 104.383 31.0001C102.987 30.9488 102.833 28.8935 102.833 28.8935V23.4984H109.347C109.863 13.7878 104.332 14.1477 104.332 14.1477C98.9552 14.8159 99.3169 21.8032 99.3169 21.8032C99.3169 21.8032 98.6448 32.644 104.435 32.4387C110.225 32.233 109.295 24.9371 109.295 24.9371H105.831ZM104.28 15.4831C104.28 15.4831 105.676 15.5344 105.727 18.1034C105.78 20.6729 105.727 22.0603 105.727 22.0603H102.833V18.0527C102.833 18.0527 102.781 15.4831 104.28 15.4831Z" fill="black"></path>
    <path fill-rule="evenodd" clip-rule="evenodd" d="M124.366 24.9371V28.8935C124.366 28.8935 124.315 31.0514 122.919 31.0001C121.523 30.9488 121.368 28.8935 121.368 28.8935V23.4984H127.882C128.398 13.7878 122.867 14.1477 122.867 14.1477C117.491 14.8159 117.852 21.8032 117.852 21.8032C117.852 21.8032 117.18 32.644 122.97 32.4387C128.76 32.233 127.83 24.9371 127.83 24.9371H124.366ZM122.815 15.4831C122.815 15.4831 124.211 15.5344 124.263 18.1034C124.315 20.6729 124.263 22.0603 124.263 22.0603H121.368V18.0527C121.368 18.0527 121.316 15.4831 122.815 15.4831Z" fill="black"></path>
    <path fill-rule="evenodd" clip-rule="evenodd" d="M109.879 32.2853H113.123V8.0769H109.879V32.2853Z" fill="black"></path>
    <path fill-rule="evenodd" clip-rule="evenodd" d="M114.064 32.2853H117.307V8.0769H114.064V32.2853Z" fill="black"></path>
    <path fill-rule="evenodd" clip-rule="evenodd" d="M128.427 14.2001H131.577V15.2277C131.577 15.2277 133.346 13.7889 135.116 14.0456V17.2315H134.023C134.023 17.2315 131.748 17.333 131.732 18.8755C131.719 20.1603 131.732 32.2854 131.732 32.2854H128.427V14.2001Z" fill="black"></path>
    <path fill-rule="evenodd" clip-rule="evenodd" d="M86.146 14.1984C80.7656 14.3015 81.49 19.739 81.49 19.739H84.731V17.3844C84.731 17.3844 84.9556 15.6371 86.0941 15.6371C87.2326 15.6371 87.3702 17.2986 87.3702 17.2986V19.6961C87.2151 19.9702 86.146 20.7406 86.146 20.7406C85.732 21.0153 85.2524 21.3796 83.9729 22.2306C82.4039 23.2757 81.714 24.389 81.714 24.389C80.7136 25.9642 80.9986 29.7062 81.5413 30.7428C81.7614 31.163 82.576 32.4901 84.4908 32.4901C86.4044 32.4901 87.5936 31.2567 87.5936 31.2567V32.2843H90.647V19.7474C90.647 13.8904 86.146 14.1984 86.146 14.1984ZM87.4222 28.5682C87.4222 28.5682 87.2834 30.0931 86.0772 30.1095C84.7836 30.1258 84.4732 28.739 84.4732 28.739V24.4059C84.4732 24.4059 84.5077 23.8408 84.8349 23.481C85.1632 23.1212 86.9561 22.1623 87.4222 21.7513V28.5682Z" fill="black"></path>
    <path fill-rule="evenodd" clip-rule="evenodd" d="M80.5172 9.85274C80.3575 9.11894 79.8994 8.99323 79.619 8.99323C78.7017 8.99323 78.5618 10.3271 78.5618 10.9068C78.5618 11.794 78.8551 12.6388 79.5299 12.6388C79.6257 12.6388 80.2814 12.6388 80.5679 11.7106L81.4334 11.9762C81.3702 12.2412 81.3126 12.5069 81.0836 12.821C80.8094 13.1983 80.3575 13.5682 79.6445 13.5682C78.7525 13.5682 77.5813 12.9677 77.5813 10.9491C77.5813 9.09809 78.5301 8.1484 79.6636 8.1484C80.9505 8.13421 81.3318 9.33558 81.3893 9.57973L80.5172 9.85274Z" fill="black"></path>
    <path fill-rule="evenodd" clip-rule="evenodd" d="M80.5172 9.85274C80.3575 9.11894 79.8994 8.99323 79.619 8.99323C78.7017 8.99323 78.5618 10.3271 78.5618 10.9068C78.5618 11.794 78.8551 12.6388 79.5299 12.6388C79.6257 12.6388 80.2814 12.6388 80.5679 11.7106L81.4334 11.9762C81.3702 12.2412 81.3126 12.5069 81.0836 12.821C80.8094 13.1983 80.3575 13.5682 79.6445 13.5682C78.7525 13.5682 77.5813 12.9677 77.5813 10.9491C77.5813 9.09809 78.5301 8.1484 79.6636 8.1484C80.9505 8.13421 81.3318 9.33558 81.3893 9.57973L80.5172 9.85274Z" fill="black"></path>
    <path fill-rule="evenodd" clip-rule="evenodd" d="M84.7058 11.515C84.7058 12.8961 83.9187 13.4742 83.1696 13.4742C82.4847 13.4742 81.6135 12.9739 81.6135 11.5218C81.6135 10.2596 82.2668 9.59066 83.0804 9.59066C84.3666 9.59066 84.7058 10.6402 84.7058 11.515ZM82.4778 11.5358C82.4778 11.7749 82.4971 12.7833 83.1571 12.7833C83.8228 12.7833 83.8414 11.7547 83.8414 11.4298C83.8414 11.0913 83.7709 10.2177 83.1696 10.2177C82.5998 10.2177 82.4778 10.9295 82.4778 11.5358Z" fill="black"></path>
    <path fill-rule="evenodd" clip-rule="evenodd" d="M84.7058 11.515C84.7058 12.8961 83.9187 13.4742 83.1696 13.4742C82.4847 13.4742 81.6135 12.9739 81.6135 11.5218C81.6135 10.2596 82.2668 9.59066 83.0804 9.59066C84.3666 9.59066 84.7058 10.6402 84.7058 11.515ZM82.4778 11.5358C82.4778 11.7749 82.4971 12.7833 83.1571 12.7833C83.8228 12.7833 83.8414 11.7547 83.8414 11.4298C83.8414 11.0913 83.7709 10.2177 83.1696 10.2177C82.5998 10.2177 82.4778 10.9295 82.4778 11.5358Z" fill="black"></path>
    <path fill-rule="evenodd" clip-rule="evenodd" d="M87.8396 13.4127H86.9726V10.789C86.9726 10.585 86.9273 10.3587 86.6571 10.3587C86.4004 10.3587 86.1697 10.528 85.8605 10.8381V13.4127H84.994V9.65996H85.8605V10.1755C86.0275 9.99898 86.4134 9.59742 87.0492 9.59742C87.5823 9.59742 87.8396 10.5567 87.8396 10.5567V13.4127Z" fill="black"></path>
    <path fill-rule="evenodd" clip-rule="evenodd" d="M87.8396 13.4127H86.9726V10.789C86.9726 10.585 86.9273 10.3587 86.6571 10.3587C86.4004 10.3587 86.1697 10.528 85.8605 10.8381V13.4127H84.994V9.65996H85.8605V10.1755C86.0275 9.99898 86.4134 9.59742 87.0492 9.59742C87.5823 9.59742 87.8396 10.5567 87.8396 10.5567V13.4127Z" fill="black"></path>
    <path fill-rule="evenodd" clip-rule="evenodd" d="M91.1456 8.11581V13.4111H90.2813V12.9853C90.1718 13.111 89.8581 13.4742 89.3464 13.4742C88.5719 13.4742 88.072 12.6294 88.072 11.56C88.072 10.4845 88.5843 9.63177 89.3527 9.63177C89.5129 9.63177 89.9034 9.65941 90.2813 10.1213V8.11581H91.1456ZM90.2876 10.7779C90.1786 10.638 89.9738 10.4146 89.6856 10.4146C89.0457 10.4146 89.0131 11.2944 89.0131 11.5742C89.0131 11.8815 89.0965 12.6915 89.6917 12.6915C89.9991 12.6915 90.1917 12.4545 90.2876 12.3355V10.7779Z" fill="black"></path>
    <path fill-rule="evenodd" clip-rule="evenodd" d="M91.1456 8.11581V13.4111H90.2813V12.9853C90.1718 13.111 89.8581 13.4742 89.3464 13.4742C88.5719 13.4742 88.072 12.6294 88.072 11.56C88.072 10.4845 88.5843 9.63177 89.3527 9.63177C89.5129 9.63177 89.9034 9.65941 90.2813 10.1213V8.11581H91.1456ZM90.2876 10.7779C90.1786 10.638 89.9738 10.4146 89.6856 10.4146C89.0457 10.4146 89.0131 11.2944 89.0131 11.5742C89.0131 11.8815 89.0965 12.6915 89.6917 12.6915C89.9991 12.6915 90.1917 12.4545 90.2876 12.3355V10.7779Z" fill="black"></path>
    <path fill-rule="evenodd" clip-rule="evenodd" d="M92.3912 11.7208C92.4228 12.573 92.8583 12.7196 93.1084 12.7196C93.5439 12.7196 93.7102 12.3564 93.787 12.2031L94.491 12.5239C94.376 12.7551 94.0178 13.4747 93.1021 13.4747C92.2378 13.4747 91.483 12.7687 91.483 11.511C91.483 10.3792 92.1295 9.6318 93.0705 9.6318C93.813 9.6318 94.2925 10.0858 94.4651 10.6582C94.5869 11.071 94.5744 11.3988 94.5547 11.7208H92.3912ZM93.787 11.1545C93.7549 10.4214 93.3198 10.2668 93.0768 10.2668C92.7884 10.2668 92.4296 10.4698 92.3912 11.1545H93.787ZM94.2225 8.15026L92.9994 9.22629H92.3529L93.2043 8.15026H94.2225Z" fill="black"></path>
    <path fill-rule="evenodd" clip-rule="evenodd" d="M92.3912 11.7208C92.4228 12.573 92.8583 12.7196 93.1084 12.7196C93.5439 12.7196 93.7102 12.3564 93.787 12.2031L94.491 12.5239C94.376 12.7551 94.0178 13.4747 93.1021 13.4747C92.2378 13.4747 91.483 12.7687 91.483 11.511C91.483 10.3792 92.1295 9.6318 93.0705 9.6318C93.813 9.6318 94.2925 10.0858 94.4651 10.6582C94.5869 11.071 94.5744 11.3988 94.5547 11.7208H92.3912ZM93.787 11.1545C93.7549 10.4214 93.3198 10.2668 93.0768 10.2668C92.7884 10.2668 92.4296 10.4698 92.3912 11.1545H93.787ZM94.2225 8.15026L92.9994 9.22629H92.3529L93.2043 8.15026H94.2225Z" fill="black"></path>
    <path fill-rule="evenodd" clip-rule="evenodd" d="M97.4066 8.19081L99.3372 11.6931H99.3495V8.19081H100.276V13.4128H99.3563L97.3627 9.77117H97.3496V13.4128H96.4227V8.19081H97.4066Z" fill="black"></path>
    <path fill-rule="evenodd" clip-rule="evenodd" d="M97.4066 8.19081L99.3372 11.6931H99.3495V8.19081H100.276V13.4128H99.3563L97.3627 9.77117H97.3496V13.4128H96.4227V8.19081H97.4066Z" fill="black"></path>
    <path fill-rule="evenodd" clip-rule="evenodd" d="M103.407 12.5854C103.407 12.7991 103.469 13.1477 103.524 13.3147H102.727C102.684 13.1477 102.666 13.0337 102.653 12.9463C102.5 13.0936 102.205 13.3745 101.697 13.3745C101.15 13.3745 100.654 13.0202 100.654 12.3914C100.654 11.4625 101.592 11.0609 102.623 10.9741V10.8669C102.623 10.519 102.396 10.3057 102.071 10.3057C101.709 10.3057 101.439 10.506 101.237 10.7998L100.746 10.3519C101.096 9.89745 101.568 9.69661 102.082 9.69661C102.647 9.69661 103.407 9.89745 103.407 10.9206V12.5854ZM102.623 11.4823C102.298 11.5487 101.439 11.7299 101.439 12.3181C101.439 12.6192 101.654 12.7664 101.856 12.7664C102.169 12.7664 102.5 12.4788 102.623 12.3716V11.4823Z" fill="black"></path>
    <path fill-rule="evenodd" clip-rule="evenodd" d="M103.407 12.5854C103.407 12.7991 103.469 13.1477 103.524 13.3147H102.727C102.684 13.1477 102.666 13.0337 102.653 12.9463C102.5 13.0936 102.205 13.3745 101.697 13.3745C101.15 13.3745 100.654 13.0202 100.654 12.3914C100.654 11.4625 101.592 11.0609 102.623 10.9741V10.8669C102.623 10.519 102.396 10.3057 102.071 10.3057C101.709 10.3057 101.439 10.506 101.237 10.7998L100.746 10.3519C101.096 9.89745 101.568 9.69661 102.082 9.69661C102.647 9.69661 103.407 9.89745 103.407 10.9206V12.5854ZM102.623 11.4823C102.298 11.5487 101.439 11.7299 101.439 12.3181C101.439 12.6192 101.654 12.7664 101.856 12.7664C102.169 12.7664 102.5 12.4788 102.623 12.3716V11.4823Z" fill="black"></path>
    <path fill-rule="evenodd" clip-rule="evenodd" d="M105.885 10.5838L105.8 10.5274C105.508 10.33 105.333 10.2386 105.106 10.2386C104.788 10.2386 104.587 10.457 104.587 10.6752C104.587 11.0068 104.925 11.0847 105.281 11.1692C105.742 11.2747 106.534 11.4506 106.534 12.2684C106.534 12.7906 106.17 13.4748 105.099 13.4748C104.295 13.4748 103.906 13.0444 103.686 12.7906L104.217 12.3886C104.412 12.5509 104.684 12.7761 105.113 12.7761C105.365 12.7761 105.657 12.6774 105.657 12.4026C105.657 12.1138 105.365 12.0153 105.015 11.9515C104.639 11.881 103.77 11.6836 103.77 10.7603C103.77 10.1252 104.328 9.59685 105.099 9.59685C105.728 9.59685 106.138 9.92106 106.39 10.1252L105.885 10.5838Z" fill="black"></path>
    <path fill-rule="evenodd" clip-rule="evenodd" d="M105.885 10.5838L105.8 10.5274C105.508 10.33 105.333 10.2386 105.106 10.2386C104.788 10.2386 104.587 10.457 104.587 10.6752C104.587 11.0068 104.925 11.0847 105.281 11.1692C105.742 11.2747 106.534 11.4506 106.534 12.2684C106.534 12.7906 106.17 13.4748 105.099 13.4748C104.295 13.4748 103.906 13.0444 103.686 12.7906L104.217 12.3886C104.412 12.5509 104.684 12.7761 105.113 12.7761C105.365 12.7761 105.657 12.6774 105.657 12.4026C105.657 12.1138 105.365 12.0153 105.015 11.9515C104.639 11.881 103.77 11.6836 103.77 10.7603C103.77 10.1252 104.328 9.59685 105.099 9.59685C105.728 9.59685 106.138 9.92106 106.39 10.1252L105.885 10.5838Z" fill="black"></path>
    <path fill-rule="evenodd" clip-rule="evenodd" d="M107.995 8.48465V9.68812H108.611V10.3673H107.995V12.3473C107.995 12.6699 108.277 12.6908 108.611 12.6976V13.4674C108.113 13.4884 107.798 13.481 107.55 13.2994C107.242 13.0827 107.112 12.7184 107.112 12.3473V10.3673H106.581V9.68812H107.112V8.48465H107.995Z" fill="black"></path>
    <path fill-rule="evenodd" clip-rule="evenodd" d="M107.995 8.48465V9.68812H108.611V10.3673H107.995V12.3473C107.995 12.6699 108.277 12.6908 108.611 12.6976V13.4674C108.113 13.4884 107.798 13.481 107.55 13.2994C107.242 13.0827 107.112 12.7184 107.112 12.3473V10.3673H106.581V9.68812H107.112V8.48465H107.995Z" fill="black"></path>
  </g>
  <defs>
    <clipPath id="clip0_13139_141546">
      <rect width="69.2308" height="25" fill="white" transform="translate(65.8848 7.5)"></rect>
    </clipPath>
  </defs>
</svg>
